Coordinates
version=1
nRows=9
nColumns=24
inDegrees=yes

Units are S.I. units (second, meters, Newtons, ...)
Angles are in degrees.

endheader
time	pelvis_tilt	pelvis_list	pelvis_rotation	pelvis_tx	pelvis_ty	pelvis_tz	hip_flexion_r	hip_adduction_r	hip_rotation_r	knee_angle_r	ankle_angle_r	subtalar_angle_r	mtp_angle_r	hip_flexion_l	hip_adduction_l	hip_rotation_l	knee_angle_l	ankle_angle_l	subtalar_angle_l	mtp_angle_l	lumbar_extension	lumbar_bending	lumbar_rotation
      1.61300000	     -0.12868416	      7.55691657	     -0.19370144	      0.42624345	      0.99022204	      0.30309415	     16.92158076	     -9.36722972	      2.45313824	    -66.49711259	      5.39368679	    -12.33617765	      0.49777641	      8.97517826	     13.72450734	      0.47798375	    -14.20700116	      4.12996771	    -13.59671024	     -1.63449633	      2.75314369	     -6.00786419	      4.56627285
      1.61716667	     -0.00271276	      7.48893925	     -0.05204525	      0.43085754	      0.99089781	      0.30268659	     17.36082324	     -9.28857692	      2.43705178	    -66.13188639	      5.85547008	    -12.53580391	      0.39062327	      8.34230923	     13.69650244	      0.72989291	    -13.87866918	      4.18607298	    -13.60646305	     -1.68031423	      2.57007300	     -5.95053180	      4.31127374
      1.62133333	      0.09817706	      7.41443914	      0.10946866	      0.43542946	      0.99149893	      0.30225192	     17.81849599	     -9.20919697	      2.40160630	    -65.73709140	      6.35542016	    -12.65233693	      0.30832855	      7.75582927	     13.65810156	      0.98160514	    -13.58893408	      4.25816015	    -13.56760142	     -1.71636826	      2.40601005	     -5.85533963	      4.14302892
      1.62550000	      0.17468923	      7.32207310	      0.28335700	      0.44001473	      0.99205477	      0.30183177	     18.28060962	     -9.11212084	      2.34790525	    -65.28573574	      6.81889878	    -12.74182198	      0.26477287	      7.20774370	     13.59046481	      1.20472806	    -13.32687883	      4.34690006	    -13.49320911	     -1.73477742	      2.29828387	     -5.76489899	      4.01801339
      1.62966667	      0.28130008	      7.26000891	      0.43523998	      0.44455540	      0.99259804	      0.30143791	     18.71496399	     -9.04009581	      2.32978853	    -64.81547744	      7.27231534	    -12.81243745	      0.20297885	      6.62190027	     13.55251366	      1.44054295	    -13.04135397	      4.43445276	    -13.43639113	     -1.76161655	      2.11461229	     -5.69835663	      3.80877202
      1.63383333	      0.40583150	      7.20636994	      0.58481434	      0.44914267	      0.99315501	      0.30102858	     19.10963467	     -8.98690691	      2.30081005	    -64.29218895	      7.65355116	    -12.82706425	      0.08889994	      5.99985199	     13.52031387	      1.67555290	    -12.72473947	      4.51177338	    -13.41504444	     -1.81223416	      1.94178883	     -5.64115800	      3.52407853
      1.63800000	      0.46030786	      7.12516292	      0.76221923	      0.45366926	      0.99358227	      0.30062639	     19.56770055	     -8.89851536	      2.25895343	    -63.73749234	      8.06123690	    -12.85399491	      0.04254200	      5.49314500	     13.45052318	      1.89110953	    -12.48660018	      4.61849041	    -13.31572733	     -1.83106842	      1.83915550	     -5.55090721	      3.41322971
      1.64216667	      0.58583274	      7.08197447	      0.90551300	      0.45820131	      0.99405649	      0.30025242	     19.94635203	     -8.84906659	      2.24694080	    -63.15248282	      8.42229452	    -12.82388734	     -0.05935960	      4.88670734	     13.41687405	      2.10320701	    -12.19285273	      4.72961256	    -13.24017727	     -1.87392995	      1.64635461	     -5.51335124	      3.14394079
      1.64633333	      0.66449736	      7.02736442	      1.06466236	      0.46272196	      0.99445603	      0.29987852	     20.35944831	     -8.78793846	      2.22197779	    -62.53003657	      8.76891702	    -12.79633798	     -0.15354359	      4.34724629	     13.36712575	      2.30967981	    -11.93320666	      4.84490169	    -13.15354778	     -1.91246489	      1.51537227	     -5.45704012	      2.95571695
